<?xml version="1.0" standalone="no"?>
<!DOCTYPE svg PUBLIC "-//W3C//DTD SVG 20010904//EN"
 "http://www.w3.org/TR/2001/REC-SVG-20010904/DTD/svg10.dtd">
<svg version="1.0" xmlns="http://www.w3.org/2000/svg"
 width="1024.000000pt" height="1024.000000pt" viewBox="0 0 1024.000000 1024.000000"
 preserveAspectRatio="xMidYMid meet">
<metadata>
Created by potrace 1.14, written by Peter Selinger 2001-2017
</metadata>
<g transform="translate(0.000000,1024.000000) scale(0.100000,-0.100000)"
fill="#000000" stroke="none">
<path d="M619 9636 c-2 -2 -38 -6 -80 -10 -100 -8 -259 -49 -334 -85 -256
-126 -270 -362 -43 -705 28 -42 124 -165 177 -226 58 -68 311 -323 396 -400
462 -416 1233 -986 1975 -1459 47 -30 121 -77 165 -106 44 -29 94 -60 110 -69
17 -9 73 -43 125 -77 52 -34 126 -80 163 -102 38 -23 80 -50 95 -59 15 -9 48
-29 75 -44 l47 -27 0 -1704 0 -1703 28 -1 c34 -1 747 -1 785 0 l27 1 0 1455 0
1454 58 -33 c31 -18 77 -45 102 -58 25 -14 95 -54 155 -88 122 -69 155 -88
300 -168 204 -113 257 -142 340 -187 39 -20 93 -50 120 -65 28 -15 86 -46 130
-70 44 -24 103 -55 130 -70 28 -15 86 -46 131 -70 l81 -43 0 -1022 c0 -562 2
-1026 5 -1031 5 -7 783 -11 829 -5 3 1 5 366 5 811 -1 446 1 810 4 809 22 -3
646 -327 652 -339 5 -8 37 -76 72 -150 73 -156 129 -274 187 -397 23 -49 62
-131 86 -183 93 -196 122 -259 187 -394 36 -76 66 -142 66 -147 0 -5 12 -9 28
-10 35 -1 906 -1 950 0 l33 1 -67 128 c-72 137 -123 235 -229 436 -38 71 -64
127 -59 124 5 -3 32 -16 59 -28 28 -12 86 -39 130 -60 44 -21 100 -47 125 -58
25 -11 90 -41 145 -67 55 -26 190 -87 300 -137 110 -50 232 -105 270 -123 84
-39 389 -174 500 -222 l80 -34 -51 48 c-64 60 -278 260 -313 292 -14 13 -75
69 -135 125 -59 56 -123 115 -141 131 -17 17 -83 77 -145 135 -123 115 -87 94
-520 297 -247 116 -586 278 -610 291 -8 5 -30 38 -48 73 -19 35 -55 105 -81
154 -122 229 -182 347 -179 349 2 2 44 11 93 20 131 26 276 84 370 150 28 19
68 53 119 101 33 31 90 106 112 145 10 19 24 42 30 50 18 23 72 189 80 245 3
28 8 59 10 70 8 41 4 222 -6 295 -51 358 -269 621 -625 755 -113 43 -299 88
-419 101 -28 3 -62 8 -76 12 -14 3 -430 7 -925 9 l-900 4 1 -645 1 -645 -31
16 c-136 70 -761 418 -1066 593 -107 62 -211 121 -230 132 -191 110 -220 129
-220 151 l0 22 435 0 c344 0 435 2 436 12 0 7 1 83 1 168 0 85 -1 164 -1 175
-1 20 -8 20 -436 20 l-435 0 1 813 c1 877 3 914 55 1027 26 57 88 130 111 130
7 0 13 5 13 11 0 5 5 7 10 4 6 -3 10 -2 10 2 0 8 72 33 110 38 8 1 29 5 45 8
62 13 165 20 320 21 l159 2 1 168 c0 92 -2 171 -5 174 -9 12 -593 17 -720 7
-310 -24 -545 -110 -686 -250 -119 -118 -212 -352 -239 -600 -4 -33 -9 -71
-12 -85 -4 -14 -8 -326 -10 -695 -3 -368 -6 -672 -8 -674 -6 -6 -269 162 -570
365 -99 66 -202 136 -230 154 -76 51 -241 167 -320 225 -162 118 -380 280
-385 285 -3 3 -45 37 -94 75 -48 39 -107 86 -130 105 -23 19 -61 50 -84 68
-157 128 -441 399 -562 540 -133 153 -250 353 -266 452 -18 110 7 196 74 259
66 61 197 109 349 129 118 15 548 6 673 -13 14 -2 48 -7 75 -10 67 -7 125 -15
155 -20 97 -17 109 -16 155 11 25 14 45 28 43 29 -4 4 -439 92 -518 105 -36 5
-75 12 -86 14 -19 4 -199 32 -264 41 -14 2 -52 7 -85 11 -33 3 -67 8 -75 9 -8
2 -51 6 -95 10 -44 4 -93 9 -110 12 -36 5 -511 14 -516 9z m6711 -3295 c189
-31 316 -89 421 -191 141 -136 210 -338 210 -610 -1 -396 -136 -608 -453 -716
-38 -12 -68 -21 -68 -19 0 3 -10 1 -23 -4 -13 -5 -41 -12 -63 -15 -21 -4 -52
-9 -69 -11 -16 -3 -68 -7 -114 -10 -46 -2 -86 -7 -89 -9 -3 -4 -346 167 -361
180 -3 3 -5 1326 -2 1400 1 21 4 21 269 19 156 -1 298 -7 342 -14z"/>
<path d="M2415 4454 c-27 -7 -61 -15 -75 -18 -14 -2 -43 -8 -65 -14 -22 -6
-51 -13 -65 -16 -14 -3 -70 -17 -125 -31 -55 -15 -107 -28 -115 -30 -186 -45
-605 -185 -765 -254 -321 -140 -492 -246 -629 -391 -212 -225 -172 -479 113
-718 485 -405 1639 -795 3246 -1096 132 -25 256 -48 275 -51 41 -7 136 -23
165 -29 17 -3 226 -37 320 -52 17 -2 41 -6 55 -9 14 -2 43 -7 65 -10 22 -2 57
-8 78 -11 20 -3 47 -7 60 -9 123 -17 230 -33 267 -40 14 -2 48 -7 75 -10 28
-3 64 -8 80 -10 17 -3 68 -9 115 -15 47 -6 99 -12 115 -15 17 -2 57 -7 90 -11
33 -3 67 -8 76 -9 9 -2 61 -8 115 -15 55 -6 115 -13 134 -15 159 -19 147 -22
130 35 -13 41 -16 160 -6 210 12 58 39 133 63 173 16 25 19 37 11 38 -7 0 -29
2 -48 5 -19 2 -91 11 -160 19 -146 18 -158 19 -310 39 -63 9 -135 18 -160 21
-25 3 -58 7 -75 9 -16 2 -77 11 -135 20 -58 8 -127 18 -155 22 -27 3 -57 7
-65 9 -17 3 -92 15 -130 20 -14 2 -97 16 -185 30 -88 14 -176 28 -195 31 -73
11 -95 15 -110 19 -8 2 -33 6 -55 10 -39 5 -125 20 -175 30 -14 3 -52 10 -85
16 -93 16 -209 38 -335 64 -150 31 -165 34 -197 40 -202 40 -674 156 -935 230
-478 137 -838 276 -1121 434 -114 64 -248 166 -308 237 -19 21 -39 45 -46 51
-6 7 -24 39 -40 70 -23 49 -28 71 -28 138 0 68 4 89 29 138 114 233 543 462
1219 651 55 16 57 18 57 51 0 19 -1 35 -2 34 -2 0 -25 -7 -53 -15z"/>
<path d="M6605 1911 c-35 -11 -60 -29 -89 -64 -38 -45 -40 -51 -40 -116 -1
-61 2 -74 29 -113 89 -126 266 -113 336 24 77 151 -74 324 -236 269z"/>
<path d="M7163 1916 c46 -119 41 -297 -12 -406 -11 -24 -20 -45 -18 -46 1 -2
25 -5 52 -8 266 -25 877 -26 1130 -2 147 15 177 18 197 21 13 1 48 6 78 10 30
3 57 8 60 10 3 2 30 6 60 10 30 3 62 8 70 10 8 3 33 7 55 10 22 2 51 7 65 9
14 3 43 8 65 11 22 3 65 10 95 15 30 5 75 12 100 15 41 6 259 40 320 50 45 8
294 46 323 50 16 2 40 6 55 9 15 3 43 7 62 10 54 8 112 17 140 22 14 2 45 7
70 10 86 12 71 21 -37 23 -59 1 -139 4 -178 6 -38 1 -137 6 -220 9 -334 15
-529 24 -825 41 -193 11 -224 13 -325 20 -107 7 -143 10 -305 19 -58 4 -121 9
-140 11 -19 3 -78 7 -130 11 -52 3 -111 7 -130 9 -19 2 -78 7 -130 10 -52 4
-106 9 -120 10 -14 2 -65 6 -115 10 -49 4 -106 8 -125 10 -158 17 -193 17
-187 1z"/>
</g>
</svg>
