<?xml version="1.0" encoding="UTF-8"?><svg id="uuid-0da55388-22c6-4b5b-8193-6f85638e24ab" xmlns="http://www.w3.org/2000/svg" xmlns:xlink="http://www.w3.org/1999/xlink" viewBox="0 0 377.67828 171.05317"><defs><style>.uuid-95212783-b6ed-4d08-a197-90028bf5b55b{fill:url(#uuid-ce8981d3-0b30-4ef2-ab5c-d9febbdeb916);}.uuid-a975867f-2441-41f4-86dc-9a4c6ab17dbc{fill:#fff;}.uuid-a010f26c-dba2-41ca-8a06-52f272ca6378{fill:#0d79c2;}.uuid-f1329494-8dc7-4047-b6ee-f68ffed5b792{fill:url(#uuid-40930d97-0015-47f7-9de3-0e8693a9f29d);}.uuid-5ddb7952-7d9a-4b29-b8d0-c9a646a1cb2a{fill:url(#uuid-31b83ede-4e09-4863-ae72-a3659e962193);}.uuid-ab3e33b1-546a-474a-9cfa-4faf5421bf0c{fill:url(#uuid-b9cc67c7-535a-44f5-8356-42fb6e89d6d9);}.uuid-10fe9ae9-77c6-4147-b4e0-9f6a60cfb07c{fill:#74a3c2;}.uuid-876b2a1f-9965-4999-a5f7-8ea06cc7bb8d{fill:none;}.uuid-f91d896c-efdb-4303-be47-f65e53537c6b{fill:url(#uuid-bf699970-2bb1-430d-94a8-d8d7bac2ecd0);}.uuid-5050e2f5-cbc4-47e3-a01e-f8f76007979f{fill:url(#uuid-4654782e-4c0b-499e-94b0-dae1f3a288f1);}.uuid-4fb4a196-64a4-441b-a680-d293ae5fd9c2{fill:#7bb7e0;}</style><radialGradient id="uuid-b9cc67c7-535a-44f5-8356-42fb6e89d6d9" cx="130.43069" cy="80.0532" fx="75.80402" fy="-60.86005" r="151.13112" gradientUnits="userSpaceOnUse"><stop offset=".3143" stop-color="#0d79c2"/><stop offset=".86936" stop-color="#8bc3fa"/></radialGradient><radialGradient id="uuid-40930d97-0015-47f7-9de3-0e8693a9f29d" cx="297.56235" cy="160.50142" fx="297.56235" fy="160.50142" r="3.49015" gradientUnits="userSpaceOnUse"><stop offset=".42801" stop-color="#0d79c2"/><stop offset=".83073" stop-color="#8bc3fa"/><stop offset="1" stop-color="#57a8ff"/></radialGradient><radialGradient id="uuid-31b83ede-4e09-4863-ae72-a3659e962193" cx="453.35853" cy="108.23214" fx="453.35853" fy="108.23214" r="51.71527" gradientUnits="userSpaceOnUse"><stop offset="0" stop-color="#57a8ff"/><stop offset=".58917" stop-color="#8bc3fa"/></radialGradient><radialGradient id="uuid-bf699970-2bb1-430d-94a8-d8d7bac2ecd0" cx="78.58237" cy="124.83141" fx="-1.54942" fy="-26.77594" r="171.48147" gradientUnits="userSpaceOnUse"><stop offset=".36187" stop-color="#96c9ff"/><stop offset=".55864" stop-color="#0d79c2"/></radialGradient><radialGradient id="uuid-4654782e-4c0b-499e-94b0-dae1f3a288f1" cx="119.42996" cy="139.9504" fx="119.42996" fy="139.9504" r="3.75621" gradientUnits="userSpaceOnUse"><stop offset=".46968" stop-color="#0d79c2"/><stop offset="1" stop-color="#96c9ff"/></radialGradient><radialGradient id="uuid-ce8981d3-0b30-4ef2-ab5c-d9febbdeb916" cx="184.11269" cy="131.10028" fx="150.56617" fy="189.46765" r="130.17139" gradientUnits="userSpaceOnUse"><stop offset=".21478" stop-color="#0d79c2"/><stop offset=".32117" stop-color="#127cc4"/><stop offset=".45417" stop-color="#2185cb"/><stop offset=".60135" stop-color="#3b94d6"/><stop offset=".75874" stop-color="#5ea8e6"/><stop offset=".92268" stop-color="#8cc3fa"/><stop offset=".95553" stop-color="#96c9ff"/></radialGradient></defs><g id="uuid-d63ac216-29bc-464f-8199-c51dd283a7ca"><path class="uuid-876b2a1f-9965-4999-a5f7-8ea06cc7bb8d" d="m66.21896,15.8813c-.43762.0907-.87775.17218-1.31659.25714"/><path class="uuid-ab3e33b1-546a-474a-9cfa-4faf5421bf0c" d="m266.61996,146.11641c8.90002,3.01001,17.28998,5.65997,25.08002,7.90002-1.95001,1.47998-3.31,3.63-3.67004,6.08997-12.07996-3.56-25.35999-7.92999-39.50995-13.02997-5.70001-2.05005-11.54004-4.22003-17.51001-6.5h-.01001c-10.89001-4.16003-22.19-8.69-33.77002-13.56-2-.84003-4.01001-1.69-6.01996-2.55005-9.72003-4.14996-19.63-8.51996-29.65002-13.10999-2.41003-1.09998-4.79999-2.20996-7.17999-3.31-7.66003-3.57001-15.15002-7.14001-22.44-10.71997-3.92999-1.92004-7.79999-3.85004-11.60004-5.76001-5.12994-2.59003-10.14996-5.16998-15.03998-7.73999-9.77997-5.12-19.06-10.19-27.76001-15.14001-5.22998-2.97003-10.25-5.90002-15.03998-8.78998C19.74997,34.22639-5.03006,12.76643.85995,4.01643c3.70001-5.48004,18.87-5.17004,41.72003-.17999-.60004.31995-1.19.63995-1.77002.97998-13.67999-2.19-22.59998-1.66003-25.12,2.08002-4.69,6.95996,13.81,23.58997,46.81,44.16998,4.71997,2.95001,9.73999,5.97998,15.03998,9.07001,8.57001,5.01001,17.85999,10.20001,27.76001,15.47998,4.87,2.59998,9.89001,5.22003,15.03998,7.85999,2.17004,1.11005,4.37006,2.23004,6.59003,3.35004,7.07001,3.56,14.38,7.13995,21.88,10.71997,5.98999,2.87,12.10999,5.72998,18.33997,8.58002,8.36005,3.82001,16.63,7.5,24.76001,11.01001,2.67999,1.14996,5.34003,2.28998,7.98004,3.40997,17.39996,7.35999,34.08997,13.92999,49.62,19.57001,5.88,2.14001,11.58997,4.14001,17.09998,6h.01001Z"/><path class="uuid-f1329494-8dc7-4047-b6ee-f68ffed5b792" d="m301.92996,161.11641c0,1-.39001,1.90997-1.03998,2.59003-2.21002-.58002-4.47003-1.20001-6.78003-1.85004-.04999-.23999-.08002-.48999-.08002-.73999,0-2.10999,1.77002-3.82001,3.95001-3.82001s3.95001,1.71002,3.95001,3.82001Z"/><path class="uuid-5ddb7952-7d9a-4b29-b8d0-c9a646a1cb2a" d="m357.08987,167.03639c-4.11987,6.11005-22.55994,5.03003-50.0199-1.75.56-1.17999.85999-2.47998.85999-3.83997,0-1.14001-.21002-2.23004-.59998-3.25,23.25,5.65997,38.67004,6.53998,42.10999,1.42999,2.12-3.14001-.51001-8.26001-7.04004-14.81.31006-.14001.59009-.31.82007-.51001,11.70996,10.21002,16.93994,18.19,13.86987,22.72998Z"/><g><path d="m62.4993,120.38685V32.66908c0-8.79492,1.50488-14.78613,4.51367-17.97559,3.00879-3.18848,8.34375-4.7832,16.00781-4.7832h1.92871l7.56055.1543v6.17188h-4.01172c-4.52637.10352-7.4834.82324-8.87207,2.16016-1.38867,1.33789-2.08301,4.16602-2.08301,8.48633v25.84473h15.66113v6.63477h-15.66113v61.02441h-15.04395Z"/><path d="m120.33914,120.38685h-15.04395V52.72768h27.15625c8.43457,0,14.83789,1.59473,19.20996,4.7832,4.37109,3.18945,6.55762,7.81836,6.55762,13.88672,0,4.42383-1.31152,8.0498-3.93457,10.87793-2.62305,2.8291-6.24902,4.52637-10.87793,5.0918l17.5127,33.01953h-17.97559l-16.12402-33.79102c5.45117-.10254,9.45117-1.23438,11.99707-3.39453s3.81836-5.55469,3.81836-10.18359c0-5.04004-1.24707-8.75635-3.74121-11.14795-2.49512-2.3916-6.36523-3.5874-11.61133-3.5874h-6.94336v62.10449Z"/><path d="m193.0784,120.07826l-26.69336-67.35059h15.81543l18.82422,47.44629,19.75-47.44629h6.94336l-39.03711,95.12402h-7.40625l11.80371-27.77344Z"/><path d="m238.95437,9.91029h15.04395v99.29004c0,2.05762.46289,3.45996,1.38867,4.2041.92578.74707,3.08594,1.11914,6.48047,1.11914h3.78027v5.86328h-16.43262c-3.80664,0-6.46875-.79688-7.98438-2.3916-1.51855-1.59375-2.27637-4.86035-2.27637-9.79785V9.91029Z"/><path d="m306.61453,122.62416c-10.18359,0-18.70898-3.49707-25.57422-10.49219-6.86719-6.99414-10.2998-15.78906-10.2998-26.38477,0-10.33789,2.93164-18.75928,8.79492-25.26611,5.86328-6.50586,13.52637-9.75928,22.99023-9.75928,10.28613,0,18.8623,3.49805,25.72949,10.49219,6.86523,6.99512,10.29883,15.76465,10.29883,26.30762,0,10.38965-2.94531,18.83789-8.83398,25.34375-5.88965,6.50684-13.59082,9.75879-23.10547,9.75879Zm-2.00586-5.0918c5.40039,0,9.77148-2.81543,13.11523-8.44824,3.34277-5.63086,5.01465-13.07617,5.01465-22.33398,0-9.30859-1.67188-16.80518-5.01465-22.48877-3.34375-5.68262-7.71484-8.5249-13.11523-8.5249s-9.78613,2.85449-13.1543,8.56348c-3.36914,5.70898-5.05273,13.19238-5.05273,22.4502,0,9.20703,1.68359,16.63867,5.05273,22.2959,3.36816,5.6582,7.75391,8.48633,13.1543,8.48633Z"/></g><path class="uuid-f91d896c-efdb-4303-be47-f65e53537c6b" d="m109.92996,140.44643c0,1.03998.16998,2.04999.48999,2.98999-59.65997-6.59998-101.23999-19.31-102.52997-32.12-.75-7.62,12.85999-14.35999,36.33997-19.48999-.01996.39996-.01001.79999.03003,1.19-15.41003,4.13-24.04004,9.15997-23.48004,14.72998,1.09003,11,37.63,21.27997,90.81,27.33002-1.04999,1.52997-1.65997,3.38-1.65997,5.37Z"/><circle class="uuid-5050e2f5-cbc4-47e3-a01e-f8f76007979f" cx="119.42996" cy="140.44643" r="3.5"/><path class="uuid-95212783-b6ed-4d08-a197-90028bf5b55b" d="m266.61996,146.11641h-.01001c-5.88.37-11.90997.69-18.08997.96002-16.75.72998-34.53003,1.09998-52.97003,1.02997-23.85999-.08002-46.76001-1.14996-67.85999-2.95996.78998-1.39001,1.23999-2.99005,1.23999-4.70001,0-1.29004-.26001-2.53003-.72998-3.66003,17.53998,1.61005,36.5,2.78003,56.32996,3.39001,2.39001.08002,4.80005.15002,7.22003.20001,1.54999.04999,3.10999.08002,4.66998.10999,11.87.22998,23.42999.26001,34.58002.09003h.01001c6.31-.09003,12.47998-.25,18.5-.46002,68.96002-2.45001,118.00006-12.52997,116.70001-25.58002-.33008-3.26001-3.77002-6.44995-9.83008-9.48999.06006-.08002.11011-.15997.16003-.25,10.34998,4.53003,16.71008,9.32001,20.05994,13.77002,8.96008,11.91998-38.80994,23.12-109.97992,27.54999Z"/><path class="uuid-876b2a1f-9965-4999-a5f7-8ea06cc7bb8d" d="m128.19998,136.78639c-5.69-.51996-11.23999-1.08997-16.61005-1.70996-1.04999,1.52997-1.65997,3.38-1.65997,5.37,0,1.03998.16998,2.04999.48999,2.98999,5.60004.63,11.35999,1.20001,17.27002,1.71002.78998-1.39001,1.23999-2.99005,1.23999-4.70001,0-1.29004-.26001-2.53003-.72998-3.66003Zm-8.77002,7.16003c-1.92999,0-3.5-1.57001-3.5-3.5s1.57001-3.5,3.5-3.5,3.5,1.57001,3.5,3.5-1.57001,3.5-3.5,3.5Z"/><circle class="uuid-a975867f-2441-41f4-86dc-9a4c6ab17dbc" cx="119.42996" cy="140.44643" r="3.5"/><path class="uuid-876b2a1f-9965-4999-a5f7-8ea06cc7bb8d" d="m127.68997,145.14644c-1.64001,2.87-4.72003,4.79999-8.26001,4.79999-4.20001,0-7.77002-2.72003-9.01001-6.51001,5.60004.63,11.35999,1.20001,17.27002,1.71002Z"/><path class="uuid-876b2a1f-9965-4999-a5f7-8ea06cc7bb8d" d="m128.19998,136.78639c-5.69-.51996-11.23999-1.08997-16.61005-1.70996,1.71002-2.5,4.58002-4.13,7.84003-4.13,3.95001,0,7.34003,2.40997,8.77002,5.83997Z"/><circle class="uuid-a010f26c-dba2-41ca-8a06-52f272ca6378" cx="119.42996" cy="140.44643" r="3.5"/><circle class="uuid-10fe9ae9-77c6-4147-b4e0-9f6a60cfb07c" cx="225.92996" cy="93.94643" r="3"/><path class="uuid-876b2a1f-9965-4999-a5f7-8ea06cc7bb8d" d="m307.92996,161.44643c0,1.35999-.29999,2.65997-.85999,3.83997-2.01001-.48999-4.07001-1.01996-6.17999-1.57996.64996-.68005,1.03998-1.59003,1.03998-2.59003,0-2.10999-1.77002-3.82001-3.95001-3.82001s-3.95001,1.71002-3.95001,3.82001c0,.25.03003.5.08002.73999-1.98999-.56-4.02002-1.14001-6.08002-1.75.36005-2.45996,1.72003-4.60999,3.67004-6.08997,5.52997,1.59998,10.75,3,15.63,4.17999.38995,1.01996.59998,2.10999.59998,3.25Z"/><path class="uuid-876b2a1f-9965-4999-a5f7-8ea06cc7bb8d" d="m307.06997,165.28639c-1.54004,3.34003-5.06,5.66003-9.14001,5.66003-5.52002,0-10-4.25-10-9.5,0-.45001.03003-.90002.09998-1.34003,2.06.60999,4.09003,1.19,6.08002,1.75.35004,1.77002,1.95001,3.09003,3.87,3.09003,1.15002,0,2.19-.48004,2.91003-1.23999,2.10999.56,4.16998,1.08997,6.17999,1.57996Z"/><path class="uuid-a975867f-2441-41f4-86dc-9a4c6ab17dbc" d="m301.92996,161.11641c0,1-.39001,1.90997-1.03998,2.59003-.72003.75995-1.76001,1.23999-2.91003,1.23999-1.91998,0-3.51996-1.32001-3.87-3.09003-.04999-.23999-.08002-.48999-.08002-.73999,0-2.10999,1.77002-3.82001,3.95001-3.82001s3.95001,1.71002,3.95001,3.82001Z"/><path class="uuid-4fb4a196-64a4-441b-a680-d293ae5fd9c2" d="m301.92996,161.11641c0,1-.39001,1.90997-1.03998,2.59003-.72003.75995-1.76001,1.23999-2.91003,1.23999-1.91998,0-3.51996-1.32001-3.87-3.09003-.04999-.23999-.08002-.48999-.08002-.73999,0-2.10999,1.77002-3.82001,3.95001-3.82001s3.95001,1.71002,3.95001,3.82001Z"/></g></svg>